<mxfile host="app.diagrams.net" modified="2022-09-14T09:17:42.772Z" agent="5.0 (Windows)" etag="I1Ki-taa9IhUuhdglZTp" version="20.3.0" type="github">
  <diagram id="C5RBs43oDa-KdzZeNtuy" name="Page-1">
    <mxGraphModel dx="1185" dy="627" grid="1" gridSize="10" guides="1" tooltips="1" connect="1" arrows="1" fold="1" page="1" pageScale="1" pageWidth="827" pageHeight="1169" math="0" shadow="0">
      <root>
        <mxCell id="WIyWlLk6GJQsqaUBKTNV-0" />
        <mxCell id="WIyWlLk6GJQsqaUBKTNV-1" parent="WIyWlLk6GJQsqaUBKTNV-0" />
        <mxCell id="qdXNDqTWMY3EU-U_93pH-0" value="&lt;h1&gt;AA21&lt;/h1&gt;&lt;p&gt;Una empresa dedicada a la realización de capacitaciones desea realizar la base de datos para administrar las capacitaciones&lt;br&gt;ofrecidas y los clientes que los contratan.&lt;br&gt;De los capacitadores sabemos que:&lt;br&gt;a) En cada capacitación pueden participar más de un capacitador y un capacitador puede participar en más de un&lt;br&gt;capacitación.&lt;br&gt;De los oradores sabemos que:&lt;br&gt;a) Una capacitacion tiene solamente un orador, y el orador sólo participa en un tipo de capacitación.&lt;br&gt;Cada capacitación está armado con un orador y -si correspondiese- capacitador . Es decir, cuando un cliente&lt;br&gt;contrata una capacitación, lo contrata tal cual está armado. Por ejemplo, la capacitacion 010 es una TED que vale&lt;br&gt;$500 y que tiene un orador y cuatro capacitadores. Sin embargo, el precio de la capacitación puede variar al&lt;br&gt;precio base por la forma de pago elegida con la empresa de eventos.&lt;br&gt;&lt;br&gt;Un cliente puede contratar varios tipos de capacitaciones, y una capacitación es contratato por varios clientes. Sin embargo,&lt;br&gt;tenga en cuenta que una capacitación puede no haber sido contratado por ningún cliente.&lt;/p&gt;" style="text;html=1;strokeColor=none;fillColor=none;spacing=5;spacingTop=-20;whiteSpace=wrap;overflow=hidden;rounded=0;" vertex="1" parent="WIyWlLk6GJQsqaUBKTNV-1">
          <mxGeometry x="50" y="360" width="770" height="270" as="geometry" />
        </mxCell>
        <mxCell id="qdXNDqTWMY3EU-U_93pH-1" value="CAPACITACIÓN" style="rounded=0;whiteSpace=wrap;html=1;" vertex="1" parent="WIyWlLk6GJQsqaUBKTNV-1">
          <mxGeometry x="200" y="220" width="120" height="60" as="geometry" />
        </mxCell>
        <mxCell id="qdXNDqTWMY3EU-U_93pH-2" value="&lt;div&gt;CLIENTE&lt;/div&gt;" style="rounded=0;whiteSpace=wrap;html=1;" vertex="1" parent="WIyWlLk6GJQsqaUBKTNV-1">
          <mxGeometry x="440" y="220" width="120" height="60" as="geometry" />
        </mxCell>
        <mxCell id="qdXNDqTWMY3EU-U_93pH-3" value="CAPACITADOR" style="rounded=0;whiteSpace=wrap;html=1;" vertex="1" parent="WIyWlLk6GJQsqaUBKTNV-1">
          <mxGeometry x="320" y="330" width="120" height="60" as="geometry" />
        </mxCell>
        <mxCell id="qdXNDqTWMY3EU-U_93pH-4" value="" style="endArrow=classic;startArrow=classic;html=1;rounded=0;exitX=0;exitY=0.5;exitDx=0;exitDy=0;entryX=0.5;entryY=1;entryDx=0;entryDy=0;" edge="1" parent="WIyWlLk6GJQsqaUBKTNV-1" source="qdXNDqTWMY3EU-U_93pH-3" target="qdXNDqTWMY3EU-U_93pH-1">
          <mxGeometry width="50" height="50" relative="1" as="geometry">
            <mxPoint x="410" y="300" as="sourcePoint" />
            <mxPoint x="460" y="250" as="targetPoint" />
          </mxGeometry>
        </mxCell>
        <mxCell id="qdXNDqTWMY3EU-U_93pH-7" value="&lt;div&gt;n&lt;/div&gt;" style="text;html=1;strokeColor=none;fillColor=none;align=center;verticalAlign=middle;whiteSpace=wrap;rounded=0;" vertex="1" parent="WIyWlLk6GJQsqaUBKTNV-1">
          <mxGeometry x="240" y="280" width="30" height="30" as="geometry" />
        </mxCell>
        <mxCell id="qdXNDqTWMY3EU-U_93pH-9" value="&lt;div&gt;n&lt;/div&gt;" style="text;html=1;strokeColor=none;fillColor=none;align=center;verticalAlign=middle;whiteSpace=wrap;rounded=0;" vertex="1" parent="WIyWlLk6GJQsqaUBKTNV-1">
          <mxGeometry x="290" y="345" width="30" height="30" as="geometry" />
        </mxCell>
        <mxCell id="qdXNDqTWMY3EU-U_93pH-10" value="&lt;div&gt;ORADOR&lt;/div&gt;" style="rounded=0;whiteSpace=wrap;html=1;" vertex="1" parent="WIyWlLk6GJQsqaUBKTNV-1">
          <mxGeometry x="320" y="120" width="120" height="60" as="geometry" />
        </mxCell>
        <mxCell id="qdXNDqTWMY3EU-U_93pH-11" value="" style="endArrow=classic;startArrow=classic;html=1;rounded=0;exitX=0.5;exitY=0;exitDx=0;exitDy=0;entryX=0;entryY=0.5;entryDx=0;entryDy=0;" edge="1" parent="WIyWlLk6GJQsqaUBKTNV-1" source="qdXNDqTWMY3EU-U_93pH-1" target="qdXNDqTWMY3EU-U_93pH-10">
          <mxGeometry width="50" height="50" relative="1" as="geometry">
            <mxPoint x="410" y="300" as="sourcePoint" />
            <mxPoint x="460" y="250" as="targetPoint" />
          </mxGeometry>
        </mxCell>
        <mxCell id="qdXNDqTWMY3EU-U_93pH-12" value="1" style="text;html=1;strokeColor=none;fillColor=none;align=center;verticalAlign=middle;whiteSpace=wrap;rounded=0;" vertex="1" parent="WIyWlLk6GJQsqaUBKTNV-1">
          <mxGeometry x="240" y="190" width="30" height="30" as="geometry" />
        </mxCell>
        <mxCell id="qdXNDqTWMY3EU-U_93pH-14" value="1" style="text;html=1;strokeColor=none;fillColor=none;align=center;verticalAlign=middle;whiteSpace=wrap;rounded=0;" vertex="1" parent="WIyWlLk6GJQsqaUBKTNV-1">
          <mxGeometry x="290" y="130" width="30" height="30" as="geometry" />
        </mxCell>
        <mxCell id="qdXNDqTWMY3EU-U_93pH-15" value="" style="endArrow=classic;startArrow=classic;html=1;rounded=0;entryX=0;entryY=0.5;entryDx=0;entryDy=0;exitX=1;exitY=0.5;exitDx=0;exitDy=0;" edge="1" parent="WIyWlLk6GJQsqaUBKTNV-1" source="qdXNDqTWMY3EU-U_93pH-1" target="qdXNDqTWMY3EU-U_93pH-2">
          <mxGeometry width="50" height="50" relative="1" as="geometry">
            <mxPoint x="410" y="300" as="sourcePoint" />
            <mxPoint x="460" y="250" as="targetPoint" />
          </mxGeometry>
        </mxCell>
        <mxCell id="qdXNDqTWMY3EU-U_93pH-16" value="1" style="text;html=1;strokeColor=none;fillColor=none;align=center;verticalAlign=middle;whiteSpace=wrap;rounded=0;" vertex="1" parent="WIyWlLk6GJQsqaUBKTNV-1">
          <mxGeometry x="410" y="250" width="30" height="30" as="geometry" />
        </mxCell>
        <mxCell id="qdXNDqTWMY3EU-U_93pH-18" value="&lt;div&gt;n&lt;/div&gt;" style="text;html=1;strokeColor=none;fillColor=none;align=center;verticalAlign=middle;whiteSpace=wrap;rounded=0;" vertex="1" parent="WIyWlLk6GJQsqaUBKTNV-1">
          <mxGeometry x="320" y="250" width="30" height="30" as="geometry" />
        </mxCell>
      </root>
    </mxGraphModel>
  </diagram>
</mxfile>
